<mxfile modified="2023-01-26T11:12:03.602Z" host="drawio-plugin" agent="5.0 (X11; Linux x86_64) AppleWebKit/537.36 (KHTML, like Gecko) Chrome/98.0.4758.102 Safari/537.36" etag="-QQVK8yQ639GlrQUIxOQ" version="20.5.3" type="embed"><diagram id="PKrw68s-FcHz-RrZCr9i" name="Page-1"><mxGraphModel dx="2518" dy="1875" grid="1" gridSize="10" guides="1" tooltips="1" connect="1" arrows="1" fold="1" page="1" pageScale="1" pageWidth="827" pageHeight="1169" math="0" shadow="0"><root><mxCell id="0"/><mxCell id="1" parent="0"/><mxCell id="33" value="" style="edgeStyle=orthogonalEdgeStyle;rounded=0;orthogonalLoop=1;jettySize=auto;html=1;endArrow=none;endFill=0;" parent="1" source="Gvd8Ezxa3fLg7O33Pl0G-1" target="3" edge="1"><mxGeometry relative="1" as="geometry"/></mxCell><mxCell id="Gvd8Ezxa3fLg7O33Pl0G-1" value="Начало" style="rounded=1;whiteSpace=wrap;html=1;arcSize=50;" parent="1" vertex="1"><mxGeometry x="290" y="100" width="140" height="60" as="geometry"/></mxCell><mxCell id="Gvd8Ezxa3fLg7O33Pl0G-6" value="MarkCore&lt;br&gt;Вход: множество точек P,&lt;br&gt;&amp;nbsp;множество ячеек G, eps и MinPt,количество потоков ThCnt.&lt;br&gt;Выход:&amp;nbsp;список ядровых точек CoreFlags" style="text;html=1;strokeColor=none;fillColor=none;align=center;verticalAlign=middle;whiteSpace=wrap;rounded=0;" parent="1" vertex="1"><mxGeometry x="508" y="107" width="250.5" height="40" as="geometry"/></mxCell><mxCell id="Gvd8Ezxa3fLg7O33Pl0G-37" value="Конец" style="rounded=1;whiteSpace=wrap;html=1;arcSize=50;" parent="1" vertex="1"><mxGeometry x="290" y="570" width="140" height="60" as="geometry"/></mxCell><mxCell id="Gvd8Ezxa3fLg7O33Pl0G-42" value="Вернуть coreFlags" style="text;html=1;resizable=0;points=[];autosize=1;align=left;verticalAlign=top;spacingTop=-4;" parent="1" vertex="1"><mxGeometry x="508" y="590" width="130" height="20" as="geometry"/></mxCell><mxCell id="7Xwj2gsnW8v6YeENi7_U-5" value="" style="endArrow=none;dashed=1;html=1;exitX=1;exitY=0.5;exitDx=0;exitDy=0;entryX=0.5;entryY=1;entryDx=0;entryDy=0;" parent="1" source="Gvd8Ezxa3fLg7O33Pl0G-37" target="7Xwj2gsnW8v6YeENi7_U-10" edge="1"><mxGeometry width="50" height="50" relative="1" as="geometry"><mxPoint x="393.5" y="-50" as="sourcePoint"/><mxPoint x="473.5" y="320" as="targetPoint"/></mxGeometry></mxCell><mxCell id="7Xwj2gsnW8v6YeENi7_U-6" value="" style="shape=partialRectangle;whiteSpace=wrap;html=1;bottom=1;right=1;left=1;top=0;fillColor=none;routingCenterX=-0.5;rotation=90;" parent="1" vertex="1"><mxGeometry x="490" y="100" width="68" height="60" as="geometry"/></mxCell><mxCell id="7Xwj2gsnW8v6YeENi7_U-9" value="" style="endArrow=none;dashed=1;html=1;entryX=0.5;entryY=1;entryDx=0;entryDy=0;" parent="1" target="7Xwj2gsnW8v6YeENi7_U-6" edge="1"><mxGeometry width="50" height="50" relative="1" as="geometry"><mxPoint x="430" y="129.5" as="sourcePoint"/><mxPoint x="470" y="130" as="targetPoint"/></mxGeometry></mxCell><mxCell id="7Xwj2gsnW8v6YeENi7_U-10" value="" style="shape=partialRectangle;whiteSpace=wrap;html=1;bottom=1;right=1;left=1;top=0;fillColor=none;routingCenterX=-0.5;rotation=90;" parent="1" vertex="1"><mxGeometry x="490" y="570" width="68" height="60" as="geometry"/></mxCell><mxCell id="34" value="" style="edgeStyle=orthogonalEdgeStyle;rounded=0;orthogonalLoop=1;jettySize=auto;html=1;endArrow=none;endFill=0;" parent="1" source="3" edge="1"><mxGeometry relative="1" as="geometry"><mxPoint x="360.0999999999999" y="280.03908794788276" as="targetPoint"/></mxGeometry></mxCell><mxCell id="3" value="coreFlags = {0, ...., 0}&lt;br&gt;len(coreFlags) == len(P)&lt;br&gt;chunk = len(G) / ThCnt" style="rounded=0;whiteSpace=wrap;html=1;" parent="1" vertex="1"><mxGeometry x="280" y="190" width="160" height="60" as="geometry"/></mxCell><mxCell id="32" style="edgeStyle=orthogonalEdgeStyle;rounded=0;orthogonalLoop=1;jettySize=auto;html=1;entryX=0.5;entryY=0;entryDx=0;entryDy=0;endArrow=none;endFill=0;" parent="1" edge="1"><mxGeometry relative="1" as="geometry"><Array as="points"><mxPoint x="640" y="820"/><mxPoint x="640" y="270"/><mxPoint x="360" y="270"/></Array><mxPoint x="360" y="280" as="targetPoint"/></mxGeometry></mxCell><mxCell id="125" value="" style="edgeStyle=orthogonalEdgeStyle;rounded=0;orthogonalLoop=1;jettySize=auto;html=1;" edge="1" parent="1" source="47" target="48"><mxGeometry relative="1" as="geometry"/></mxCell><mxCell id="126" style="edgeStyle=orthogonalEdgeStyle;rounded=0;orthogonalLoop=1;jettySize=auto;html=1;entryX=0.5;entryY=0;entryDx=0;entryDy=0;entryPerimeter=0;" edge="1" parent="1" source="47" target="119"><mxGeometry relative="1" as="geometry"/></mxCell><mxCell id="127" style="edgeStyle=orthogonalEdgeStyle;rounded=0;orthogonalLoop=1;jettySize=auto;html=1;entryX=0.5;entryY=0;entryDx=0;entryDy=0;entryPerimeter=0;" edge="1" parent="1" source="47" target="120"><mxGeometry relative="1" as="geometry"/></mxCell><mxCell id="47" value="Цикл 1 Паралелльно&lt;br&gt;i = 1; i &amp;lt;= len(G); &lt;br&gt;i = i+chunk" style="strokeWidth=2;html=1;shape=mxgraph.flowchart.loop_limit;whiteSpace=wrap;" parent="1" vertex="1"><mxGeometry x="280" y="280" width="160" height="60" as="geometry"/></mxCell><mxCell id="79" value="" style="edgeStyle=orthogonalEdgeStyle;rounded=0;orthogonalLoop=1;jettySize=auto;html=1;" edge="1" parent="1" source="77" target="Gvd8Ezxa3fLg7O33Pl0G-37"><mxGeometry relative="1" as="geometry"/></mxCell><mxCell id="77" value="Конец цикла 1" style="strokeWidth=2;html=1;shape=mxgraph.flowchart.loop_limit;whiteSpace=wrap;flipV=1;" vertex="1" parent="1"><mxGeometry x="280" y="470" width="160" height="60" as="geometry"/></mxCell><mxCell id="128" style="edgeStyle=orthogonalEdgeStyle;rounded=0;orthogonalLoop=1;jettySize=auto;html=1;" edge="1" parent="1" source="119" target="77"><mxGeometry relative="1" as="geometry"/></mxCell><mxCell id="119" value="A" style="strokeWidth=2;html=1;shape=mxgraph.flowchart.start_2;whiteSpace=wrap;" vertex="1" parent="1"><mxGeometry x="235" y="380" width="50" height="50" as="geometry"/></mxCell><mxCell id="130" style="edgeStyle=orthogonalEdgeStyle;rounded=0;orthogonalLoop=1;jettySize=auto;html=1;entryX=0.5;entryY=1;entryDx=0;entryDy=0;entryPerimeter=0;" edge="1" parent="1" source="120" target="77"><mxGeometry relative="1" as="geometry"/></mxCell><mxCell id="120" value="A" style="strokeWidth=2;html=1;shape=mxgraph.flowchart.start_2;whiteSpace=wrap;" vertex="1" parent="1"><mxGeometry x="440" y="380" width="50" height="50" as="geometry"/></mxCell><mxCell id="129" value="" style="edgeStyle=orthogonalEdgeStyle;rounded=0;orthogonalLoop=1;jettySize=auto;html=1;" edge="1" parent="1" source="48" target="77"><mxGeometry relative="1" as="geometry"/></mxCell><mxCell id="48" value="A" style="strokeWidth=2;html=1;shape=mxgraph.flowchart.start_2;whiteSpace=wrap;" parent="1" vertex="1"><mxGeometry x="335" y="380" width="50" height="50" as="geometry"/></mxCell></root></mxGraphModel></diagram></mxfile>